<svg width="30" height="30" viewBox="0 0 30 30" fill="none" xmlns="http://www.w3.org/2000/svg">
<path d="M28.5938 16.4062V20.1562H21.0938C20.5965 20.1562 20.1196 19.9587 19.7679 19.6071C19.4163 19.2554 19.2188 18.7785 19.2188 18.2812C19.2188 17.784 19.4163 17.3071 19.7679 16.9554C20.1196 16.6038 20.5965 16.4062 21.0938 16.4062H28.5938Z" fill="#FF7956"/>
<path d="M28.5938 25.3125C28.5938 25.6855 28.4456 26.0431 28.1819 26.3069C27.9181 26.5706 27.5605 26.7188 27.1875 26.7188H2.8125C2.43954 26.7188 2.08185 26.5706 1.81813 26.3069C1.55441 26.0431 1.40625 25.6855 1.40625 25.3125C1.40625 24.9395 1.55441 24.5819 1.81813 24.3181C2.08185 24.0544 2.43954 23.9062 2.8125 23.9062H27.1875C27.5605 23.9062 27.9181 24.0544 28.1819 24.3181C28.4456 24.5819 28.5938 24.9395 28.5938 25.3125Z" fill="#806749"/>
<path d="M28.5938 25.3125C28.5938 25.6855 28.4456 26.0431 28.1819 26.3069C27.9181 26.5706 27.5605 26.7188 27.1875 26.7188H25.3125C25.6855 26.7188 26.0431 26.5706 26.3069 26.3069C26.5706 26.0431 26.7188 25.6855 26.7188 25.3125C26.7188 24.9395 26.5706 24.5819 26.3069 24.3181C26.0431 24.0544 25.6855 23.9062 25.3125 23.9062H27.1875C27.5605 23.9062 27.9181 24.0544 28.1819 24.3181C28.4456 24.5819 28.5938 24.9395 28.5938 25.3125Z" fill="#6A563D"/>
<path d="M22.0312 26.7188H26.7188V28.5938H22.0312V26.7188Z" fill="#6A563D"/>
<path d="M24.375 26.7188H26.7188V28.5938H24.375V26.7188Z" fill="#5F4D37"/>
<path d="M26.7188 20.1562V23.9062H19.2188C18.7215 23.9062 18.2446 23.7087 17.8929 23.3571C17.5413 23.0054 17.3438 22.5285 17.3438 22.0312C17.3438 21.534 17.5413 21.0571 17.8929 20.7054C18.2446 20.3538 18.7215 20.1562 19.2188 20.1562H26.7188Z" fill="#FEE9AB"/>
<path d="M26.7188 12.6562V16.4062H19.2188C18.7215 16.4062 18.2446 16.2087 17.8929 15.8571C17.5413 15.5054 17.3438 15.0285 17.3438 14.5312C17.3438 14.034 17.5413 13.5571 17.8929 13.2054C18.2446 12.8538 18.7215 12.6562 19.2188 12.6562H26.7188Z" fill="#FEE9AB"/>
<path d="M24.8438 12.6562H26.7188V16.4062H24.8438V12.6562Z" fill="#FFDE55"/>
<path d="M24.8438 20.1562H26.7188V23.9062H24.8438V20.1562Z" fill="#FFDE55"/>
<path d="M26.7188 16.4062H28.5938V20.1562H26.7188V16.4062Z" fill="#FF5023"/>
<path d="M15.4687 6.09375V23.9062H8.90625V6.09375C8.90699 5.84534 9.006 5.60731 9.18166 5.43166C9.35731 5.256 9.59534 5.15699 9.84375 5.15625H14.5312C14.7797 5.15699 15.0177 5.256 15.1933 5.43166C15.369 5.60731 15.468 5.84534 15.4687 6.09375Z" fill="#FF7956"/>
<path d="M15.4688 6.09375V23.9062H13.5938V6.09375C13.593 5.84534 13.494 5.60731 13.3183 5.43166C13.1427 5.256 12.9047 5.15699 12.6562 5.15625H14.5312C14.7797 5.15699 15.0177 5.256 15.1933 5.43166C15.369 5.60731 15.468 5.84534 15.4688 6.09375Z" fill="#FF5023"/>
<path d="M10.7812 17.3438H13.5938V22.0312H10.7812V17.3438Z" fill="#FEE9AB"/>
<path d="M12.1875 17.3438H13.5938V22.0312H12.1875V17.3438Z" fill="#FFDE55"/>
<path d="M8.90625 6.09375V23.9062H2.34375V6.09375C2.34449 5.84534 2.4435 5.60731 2.61916 5.43166C2.79481 5.256 3.03284 5.15699 3.28125 5.15625H7.96875C8.21716 5.15699 8.45519 5.256 8.63084 5.43166C8.8065 5.60731 8.90551 5.84534 8.90625 6.09375Z" fill="#FEE9AB"/>
<path d="M8.90625 6.09375V23.9062H7.03125V6.09375C7.03051 5.84534 6.9315 5.60731 6.75584 5.43166C6.58019 5.256 6.34216 5.15699 6.09375 5.15625H7.96875C8.21716 5.15699 8.45519 5.256 8.63084 5.43166C8.8065 5.60731 8.90551 5.84534 8.90625 6.09375Z" fill="#FFDE55"/>
<path d="M3.28125 26.7188H7.96875V28.5938H3.28125V26.7188Z" fill="#6A563D"/>
<path d="M4.21875 17.3438H7.03125V22.0312H4.21875V17.3438Z" fill="#C0AB91"/>
<path d="M5.625 17.3438H7.03125V22.0312H5.625V17.3438Z" fill="#A78966"/>
<path d="M5.625 26.7188H7.96875V28.5938H5.625V26.7188Z" fill="#5F4D37"/>
<path d="M3.75 7.5H7.5V8.4375H3.75V7.5Z" fill="black"/>
<path d="M3.75 10.3125H7.5V11.25H3.75V10.3125Z" fill="black"/>
<path d="M3.75 13.125H7.5V14.0625H3.75V13.125Z" fill="black"/>
<path d="M10.3125 7.5H14.0625V8.4375H10.3125V7.5Z" fill="black"/>
<path d="M10.3125 10.3125H14.0625V11.25H10.3125V10.3125Z" fill="black"/>
<path d="M10.3125 13.125H14.0625V14.0625H10.3125V13.125Z" fill="black"/>
<path d="M7.03125 16.875H4.21875C4.09443 16.875 3.9752 16.9244 3.88729 17.0123C3.79939 17.1002 3.75 17.2194 3.75 17.3438V22.0312C3.75 22.1556 3.79939 22.2748 3.88729 22.3627C3.9752 22.4506 4.09443 22.5 4.21875 22.5H7.03125C7.15557 22.5 7.2748 22.4506 7.36271 22.3627C7.45061 22.2748 7.5 22.1556 7.5 22.0312V17.3438C7.5 17.2194 7.45061 17.1002 7.36271 17.0123C7.2748 16.9244 7.15557 16.875 7.03125 16.875ZM6.5625 21.5625H4.6875V17.8125H6.5625V21.5625Z" fill="black"/>
<path d="M10.7812 22.5H13.5938C13.7181 22.5 13.8373 22.4506 13.9252 22.3627C14.0131 22.2748 14.0625 22.1556 14.0625 22.0312V17.3438C14.0625 17.2194 14.0131 17.1002 13.9252 17.0123C13.8373 16.9244 13.7181 16.875 13.5938 16.875H10.7812C10.6569 16.875 10.5377 16.9244 10.4498 17.0123C10.3619 17.1002 10.3125 17.2194 10.3125 17.3438V22.0312C10.3125 22.1556 10.3619 22.2748 10.4498 22.3627C10.5377 22.4506 10.6569 22.5 10.7812 22.5ZM11.25 17.8125H13.125V21.5625H11.25V17.8125Z" fill="black"/>
<path d="M28.5937 20.625C28.718 20.625 28.8372 20.5756 28.9251 20.4877C29.013 20.3998 29.0624 20.2806 29.0624 20.1562V16.4062C29.0624 16.2819 29.013 16.1627 28.9251 16.0748C28.8372 15.9869 28.718 15.9375 28.5937 15.9375H27.1874V12.6562C27.1874 12.5319 27.138 12.4127 27.0501 12.3248C26.9622 12.2369 26.843 12.1875 26.7187 12.1875H19.2187C18.5971 12.1875 18.0009 12.4344 17.5614 12.874C17.1218 13.3135 16.8749 13.9096 16.8749 14.5312C16.8749 15.1529 17.1218 15.749 17.5614 16.1885C18.0009 16.6281 18.5971 16.875 19.2187 16.875H19.2327C18.9198 17.277 18.7499 17.7718 18.7499 18.2812C18.7499 18.7907 18.9198 19.2855 19.2327 19.6875H19.2187C18.5971 19.6875 18.0009 19.9344 17.5614 20.374C17.1218 20.8135 16.8749 21.4096 16.8749 22.0312C16.8763 22.5404 17.0461 23.0348 17.3577 23.4375H15.9374V6.09375C15.9363 5.72113 15.7878 5.36409 15.5243 5.10061C15.2608 4.83713 14.9038 4.68861 14.5312 4.6875H9.84366C9.49654 4.68841 9.16224 4.81878 8.90616 5.05312C8.65008 4.81878 8.31579 4.68841 7.96866 4.6875H3.28116C2.90855 4.68861 2.55151 4.83713 2.28802 5.10061C2.02454 5.36409 1.87603 5.72113 1.87491 6.09375V23.7C1.51763 23.9053 1.23827 24.2231 1.08035 24.6037C0.922428 24.9843 0.894807 25.4065 1.00179 25.8045C1.10877 26.2024 1.34434 26.5539 1.67183 26.804C1.99931 27.0541 2.40032 27.189 2.81241 27.1875V28.5938C2.81241 28.7181 2.8618 28.8373 2.94971 28.9252C3.03762 29.0131 3.15684 29.0625 3.28116 29.0625H7.96866C8.09298 29.0625 8.21221 29.0131 8.30012 28.9252C8.38803 28.8373 8.43741 28.7181 8.43741 28.5938V27.1875H21.5624V28.5938C21.5624 28.7181 21.6118 28.8373 21.6997 28.9252C21.7876 29.0131 21.9068 29.0625 22.0312 29.0625H26.7187C26.843 29.0625 26.9622 29.0131 27.0501 28.9252C27.138 28.8373 27.1874 28.7181 27.1874 28.5938V27.1875C27.6847 27.1875 28.1616 26.99 28.5132 26.6383C28.8649 26.2867 29.0624 25.8098 29.0624 25.3125C29.0624 24.8152 28.8649 24.3383 28.5132 23.9867C28.1616 23.635 27.6847 23.4375 27.1874 23.4375V20.625H28.5937ZM19.2187 15.9375C18.8457 15.9375 18.488 15.7893 18.2243 15.5256C17.9606 15.2619 17.8124 14.9042 17.8124 14.5312C17.8124 14.1583 17.9606 13.8006 18.2243 13.5369C18.488 13.2732 18.8457 13.125 19.2187 13.125H26.2499V14.0625H19.2187V15H26.2499V15.9375H19.2187ZM19.2187 20.625H26.2499V21.5625H19.2187V22.5H26.2499V23.4375H19.2187C18.8457 23.4375 18.488 23.2893 18.2243 23.0256C17.9606 22.7619 17.8124 22.4042 17.8124 22.0312C17.8124 21.6583 17.9606 21.3006 18.2243 21.0369C18.488 20.7732 18.8457 20.625 19.2187 20.625ZM9.37491 6.09375C9.37491 5.96943 9.4243 5.8502 9.51221 5.76229C9.60011 5.67439 9.71934 5.625 9.84366 5.625H14.5312C14.6555 5.625 14.7747 5.67439 14.8626 5.76229C14.9505 5.8502 14.9999 5.96943 14.9999 6.09375V23.4375H9.37491V6.09375ZM2.81241 6.09375C2.81241 5.96943 2.8618 5.8502 2.94971 5.76229C3.03762 5.67439 3.15684 5.625 3.28116 5.625H7.96866C8.09298 5.625 8.21221 5.67439 8.30012 5.76229C8.38803 5.8502 8.43741 5.96943 8.43741 6.09375V23.4375H2.81241V6.09375ZM7.49991 28.125H3.74991V27.1875H7.49991V28.125ZM26.2499 28.125H22.4999V27.1875H26.2499V28.125ZM28.1249 25.3125C28.1242 25.5609 28.0252 25.7989 27.8495 25.9746C27.6739 26.1502 27.4358 26.2493 27.1874 26.25H2.81241C2.56377 26.25 2.32532 26.1512 2.1495 25.9754C1.97369 25.7996 1.87491 25.5611 1.87491 25.3125C1.87491 25.0639 1.97369 24.8254 2.1495 24.6496C2.32532 24.4738 2.56377 24.375 2.81241 24.375H27.1874C27.4358 24.3757 27.6739 24.4748 27.8495 24.6504C28.0252 24.8261 28.1242 25.0641 28.1249 25.3125ZM21.0937 19.6875C20.7207 19.6875 20.363 19.5393 20.0993 19.2756C19.8356 19.0119 19.6874 18.6542 19.6874 18.2812C19.6874 17.9083 19.8356 17.5506 20.0993 17.2869C20.363 17.0232 20.7207 16.875 21.0937 16.875H28.1249V17.8125H21.0937V18.75H28.1249V19.6875H21.0937Z" fill="black"/>
</svg>
