<svg width="555" height="208" viewBox="0 0 555 208" fill="none" xmlns="http://www.w3.org/2000/svg">
<g filter="url(#filter0_i)">
<path d="M0 10C0 4.47715 4.47715 0 10 0H545C550.523 0 555 4.47715 555 10V148C555 153.523 550.523 158 545 158H9.99999C4.47715 158 0 153.523 0 148V10Z" fill="#0A85D9"/>
</g>
<path d="M0 11.8466C0 6.32375 4.47715 2 10 2H545C550.523 2 555 6.47715 555 12V137.934C555 144.767 548.373 149.645 541.862 147.573C457.904 120.843 0 -17.1908 0 151.834C0 318.657 0 65.951 0 11.8466Z" fill="#026CB5"/>
<defs>
<filter id="filter0_i" x="0" y="0" width="555" height="162" filterUnits="userSpaceOnUse" color-interpolation-filters="sRGB">
<feFlood flood-opacity="0" result="BackgroundImageFix"/>
<feBlend mode="normal" in="SourceGraphic" in2="BackgroundImageFix" result="shape"/>
<feColorMatrix in="SourceAlpha" type="matrix" values="0 0 0 0 0 0 0 0 0 0 0 0 0 0 0 0 0 0 127 0" result="hardAlpha"/>
<feOffset dy="4"/>
<feGaussianBlur stdDeviation="2"/>
<feComposite in2="hardAlpha" operator="arithmetic" k2="-1" k3="1"/>
<feColorMatrix type="matrix" values="0 0 0 0 0 0 0 0 0 0 0 0 0 0 0 0 0 0 0.25 0"/>
<feBlend mode="normal" in2="shape" result="effect1_innerShadow"/>
</filter>
</defs>
</svg>
