<svg width="30" height="30" viewBox="0 0 30 30" fill="none" xmlns="http://www.w3.org/2000/svg">
<g clip-path="url(#clip0)">
<path d="M30 -0.375H0V29.625H30V-0.375Z" fill="#44678D"/>
<path d="M7.77174 8.75473C8.49072 10.5303 9.40191 12.2043 10.602 13.7071C10.7612 13.907 10.9618 14.0848 11.1732 14.2296C11.482 14.4416 11.7732 14.3671 11.8988 14.014C12.0316 13.6433 12.1534 12.8922 12.1606 12.5031C12.1805 11.4861 12.1577 10.8197 12.103 9.80404C12.0676 9.15352 11.8364 8.58233 10.8795 8.40992C10.584 8.35647 10.5565 8.11323 10.7464 7.87059C11.1416 7.36543 11.6922 7.28492 12.2893 7.25306C13.257 7.20079 14.2282 7.24345 15.197 7.25306C15.5917 7.25668 15.9887 7.28847 16.3773 7.37319C16.8843 7.48372 17.1558 7.83932 17.2393 8.33422C17.2825 8.5895 17.3048 8.85196 17.2987 9.11027C17.2735 10.2203 17.2201 11.3297 17.2074 12.4391C17.202 12.8745 17.2338 13.3208 17.327 13.7449C17.4573 14.3359 17.8597 14.4843 18.2712 14.0573C18.7938 13.5149 19.2545 12.9046 19.6869 12.2848C20.4726 11.1573 21.0594 9.92002 21.5645 8.64427C21.8258 7.98599 22.0259 7.84301 22.734 7.84123C24.065 7.8382 25.3961 7.83702 26.7271 7.84123C26.9632 7.84242 27.2101 7.86467 27.4329 7.93556C27.7945 8.0509 27.938 8.34581 27.8533 8.72004C27.6557 9.597 27.1818 10.3424 26.6743 11.059C25.8598 12.2086 25.0063 13.3307 24.1726 14.467C24.0663 14.6118 23.9726 14.7662 23.8855 14.9229C23.5737 15.4863 23.5954 15.8022 24.05 16.2713C24.7738 17.018 25.5487 17.7165 26.2496 18.4835C26.759 19.0415 27.2305 19.6469 27.6341 20.2842C28.1447 21.0903 27.8293 21.8495 26.8755 21.9846C26.2755 22.0694 23.3444 21.9853 23.1929 21.9846C22.4049 21.9811 21.7142 21.7078 21.1579 21.1726C20.5393 20.5768 19.977 19.9232 19.383 19.3015C19.204 19.1141 19.013 18.9346 18.807 18.7778C18.3211 18.4071 17.8441 18.4894 17.6171 19.0601C17.4231 19.5502 17.2555 20.8374 17.2477 20.9473C17.2068 21.5221 16.841 21.8885 16.1971 21.9239C14.3381 22.0249 12.5367 21.8176 10.8586 20.9185C9.43621 20.1569 8.30041 19.0799 7.31654 17.824C5.75364 15.8291 4.51916 13.6363 3.39212 11.3791C3.33452 11.2637 2.19299 8.83465 2.16231 8.71991C2.06035 8.33573 2.15547 7.96874 2.48007 7.84242C2.68242 7.76369 6.44609 7.84215 6.50869 7.84551C7.10925 7.87803 7.51876 8.1314 7.77174 8.75473Z" fill="white"/>
</g>
<defs>
<clipPath id="clip0">
<rect width="30" height="30" fill="white"/>
</clipPath>
</defs>
</svg>
