<svg width="18" height="18" viewBox="0 0 18 18" fill="none" xmlns="http://www.w3.org/2000/svg">
<g clip-path="url(#clip0)">
<path d="M10.6491 9.0146L17.6579 2.00555C18.1141 1.54963 18.1141 0.812491 17.6579 0.356581C17.202 -0.0993291 16.4649 -0.0993291 16.009 0.356581L8.9999 7.36564L1.99106 0.356581C1.53493 -0.0993291 0.798003 -0.0993291 0.342093 0.356581C-0.114031 0.812491 -0.114031 1.54963 0.342093 2.00555L7.35094 9.0146L0.342093 16.0237C-0.114031 16.4796 -0.114031 17.2167 0.342093 17.6726C0.569301 17.9 0.868045 18.0143 1.16658 18.0143C1.46511 18.0143 1.76364 17.9 1.99106 17.6726L8.9999 10.6636L16.009 17.6726C16.2364 17.9 16.5349 18.0143 16.8334 18.0143C17.132 18.0143 17.4305 17.9 17.6579 17.6726C18.1141 17.2167 18.1141 16.4796 17.6579 16.0237L10.6491 9.0146Z" fill="#E9E9E9"/>
</g>
<defs>
<clipPath id="clip0">
<rect width="18" height="18" fill="white"/>
</clipPath>
</defs>
</svg>
