<svg width="42" height="36" viewBox="0 0 42 36" fill="none" xmlns="http://www.w3.org/2000/svg">
<path d="M12.726 28.2197L10.739 29.9789C11.3717 30.6908 12.0591 31.352 12.7949 31.9567L14.4746 29.9034C13.8481 29.3893 13.2635 28.8264 12.726 28.2197Z" fill="url(#paint0_linear)"/>
<path d="M10.1154 24.1211L7.68066 25.1663C8.05712 26.0435 8.50412 26.8888 9.01727 27.6938L11.252 26.2737C10.8162 25.5877 10.4361 24.8679 10.1154 24.1211Z" fill="url(#paint1_linear)"/>
<path d="M33.0837 2.64273C30.3598 1.06345 27.2672 0.231297 24.1186 0.230469C15.1633 0.244875 7.59742 6.87685 6.41017 15.7532L1.87311 11.2161L0 13.0892L7.56 20.6492L15.12 13.0892L13.2469 11.2161L9.14962 15.3081C10.7064 7.04881 18.6639 1.61543 26.9231 3.17219C35.1824 4.72895 40.6158 12.6864 39.059 20.9456C37.5023 29.2048 29.5448 34.6383 21.2855 33.0815C19.5925 32.7624 17.9659 32.1581 16.4751 31.2943L15.1438 33.5847C23.6882 38.5386 34.6308 35.628 39.5848 27.0836C44.5388 18.5392 41.6281 7.59665 33.0837 2.64273Z" fill="url(#paint2_linear)"/>
<path d="M22.1316 6.19238V20.764L27.9602 25.1354L29.5498 23.0159L24.781 19.4393V6.19238H22.1316Z" fill="url(#paint3_linear)"/>
<defs>
<linearGradient id="paint0_linear" x1="14.4746" y1="30.0882" x2="10.589" y2="30.0882" gradientUnits="userSpaceOnUse">
<stop stop-color="#73D163"/>
<stop offset="1" stop-color="#115A05"/>
</linearGradient>
<linearGradient id="paint1_linear" x1="11.252" y1="25.9074" x2="7.53729" y2="25.9074" gradientUnits="userSpaceOnUse">
<stop stop-color="#73D163"/>
<stop offset="1" stop-color="#115A05"/>
</linearGradient>
<linearGradient id="paint2_linear" x1="42" y1="18.1152" x2="-1.68613" y2="18.1152" gradientUnits="userSpaceOnUse">
<stop stop-color="#73D163"/>
<stop offset="1" stop-color="#115A05"/>
</linearGradient>
<linearGradient id="paint3_linear" x1="29.5498" y1="15.6639" x2="21.8338" y2="15.6639" gradientUnits="userSpaceOnUse">
<stop stop-color="#73D163"/>
<stop offset="1" stop-color="#115A05"/>
</linearGradient>
</defs>
</svg>
